# AST/ASF file generated using VICON BodyLanguage
# -----------------------------------------------
:version 1.10
:name VICON
:units
  mass 1.0
  length 0.45
  angle deg
:documentation
   .ast/.asf automatically generated from VICON data using
   VICON BodyBuilder and BodyLanguage model FoxedUp or BRILLIANT.MOD
:root
   order TX TY TZ RX RY RZ
   axis XYZ
   position 0 0 0  
   orientation 0 0 0 
:bonedata
  begin
     id 1 
     name lhipjoint
     direction 0.661853 -0.702389 0.261917 
     length 2.64193 
     axis 0 0 0  XYZ
  end
  begin
     id 2 
     name lfemur
     direction 0.34202 -0.939693 0  
     length 7.01722  
     axis 0 0 20  XYZ
    dof rx ry rz
    limits (-160.0 20.0)
           (-70.0 70.0)
           (-60.0 70.0)
  end
  begin
     id 3 
     name ltibia
     direction 0.34202 -0.939693 0   
     length 8.25008   
     axis 0 0 20   XYZ
    dof rx
    limits (-10.0 170.0)
  end
  begin
     id 4 
     name lfoot
     direction 0.0709916 -0.195048 0.978221   
     length 2.31941   
     axis -90 7.62852e-016 20   XYZ
    dof rx rz
    limits (-45.0 90.0)
           (-70.0 20.0)
  end
  begin
     id 5 
     name ltoes
     direction 1.53586e-011 -4.22017e-011 1   
     length 1.16486   
     axis -90 7.62852e-016 20   XYZ
    dof rx
    limits (-90.0 20.0)
  end
  begin
     id 6 
     name rhipjoint
     direction -0.638185 -0.721362 0.268992   
     length 2.57244  
     axis 0 0 0  XYZ 
  end
  begin
     id 7 
     name rfemur
     direction -0.34202 -0.939693 0   
     length 7.07017   
     axis 0 0 -20   XYZ
    dof rx ry rz
    limits (-160.0 20.0)
           (-70.0 70.0)
           (-70.0 60.0)
  end
  begin
     id 8 
     name rtibia
     direction -0.34202 -0.939693 0   
     length 8.20386   
     axis 0 0 -20   XYZ
    dof rx
    limits (-10.0 170.0)
 end
 begin
     id 9 
     name rfoot
     direction -0.0822429 -0.225961 0.970658   
     length 2.32215  
     axis -90 -7.62852e-016 -20   XYZ
    dof rx rz
    limits (-45.0 90.0)
           (-20.0 70.0)
  end
  begin
     id 10 
     name rtoes
     direction -1.53597e-011 -4.21689e-011 1   
     length 1.16333   
     axis -90 -7.62852e-016 -20   XYZ
    dof rx
    limits (-90.0 20.0)
  end
  begin
     id 11 
     name lowerback
     direction -0.0131557 0.998589 -0.0514484   
     length 2.14993   
     axis 0 0 0   XYZ
    dof rx ry rz
    limits (-20.0 45.0)
           (-30.0 30.0)
           (-30.0 30.0)
  end
  begin
     id 12 
     name upperback
     direction -0.000776481 0.999993 0.00352685   
     length 2.15301   
     axis 0 0 0   XYZ
    dof rx ry rz
    limits (-20.0 45.0)
           (-30.0 30.0)
           (-30.0 30.0)
  end
  begin
     id 13 
     name thorax
     direction 0.00438186 0.999609 0.0276143   
     length 2.15424   
     axis 0 0 0   XYZ
    dof rx ry rz
    limits (-20.0 45.0)
           (-30.0 30.0)
           (-30.0 30.0)
  end
  begin
     id 14 
     name lowerneck
     direction -0.0488006 0.998094 0.0377807   
     length 1.90481   
     axis 0 0 0   XYZ
    dof rx ry rz
    limits (-20.0 45.0)
           (-30.0 30.0)
           (-30.0 30.0)
  end
  begin
     id 15 
     name upperneck
     direction 0.0443769 0.990702 -0.12861   
     length 1.91305   
     axis 0 0 0   XYZ
    dof rx ry rz
    limits (-20.0 45.0)
           (-30.0 30.0)
           (-30.0 30.0)
  end
  begin
     id 16
     name head
     direction 0.0165599 0.998647 -0.0492982  
     length 1.92369  
     axis 0 0 0   XYZ
    dof rx ry rz
    limits (-20.0 45.0)
           (-30.0 30.0)
           (-30.0 30.0)
  end
  begin
     id 17 
     name lclavicle
     direction 0.911936 0.410197 -0.0105506  
     length 3.52622  
     axis 0 0 0   XYZ
    dof ry rz
    limits (-20.0 10.0)
           (0.0 20.0)
  end
  begin
     id 18 
     name lhumerus
     direction 1 -4.48974e-011 -2.48591e-028   
     length 5.47651   
     axis 180 -30 -90   XYZ
    dof rx ry rz
    limits (-60.0 90.0)
           (-90.0 90.0)
           (-90.0 90.0)
  end
  begin
     id 19
     name lradius
     direction 1 -4.48938e-011 -4.40099e-027   
     length 3.09058   
     axis 180 -30 -90   XYZ
    dof rx
    limits (-10.0 170.0)
  end
  begin
     id 20
     name lwrist
     direction 1 -4.49042e-011 -2.99852e-027   
     length 1.54529   
     axis 1.95339e-015 90 90   XYZ
    dof ry
    limits (-180.0 0.0)
 end
  begin
     id 21 
     name lhand
     direction 1 -4.48815e-011 -5.98193e-027   
     length 0.771611   
     axis 3.82337e-015 90 90   XYZ
    dof rx rz
    limits (-90.0 90.0)
           (-45.0 45.0)
  end
  begin
     id 22 
     name lfingers
     direction 1 -4.49034e-011 -1.1993e-026   
     length 0.622093   
     axis 7.64668e-015 90 90   XYZ
    dof rx
    limits (0.0 90.0)
  end
  begin
     id 23
     name lthumb
     direction 0.707107 -6.34867e-011 0.707107   
     length 0.893204   
     axis -90 45 -1.62303e-014   XYZ
    dof rx rz
    limits (-45.0 45.0)
           (-45.0 45.0)
  end
  begin
     id 24 
     name rclavicle
     direction -0.93442 0.355634 -0.0195692   
     length 3.62463  
     axis 0 0 0   XYZ 
    dof ry rz
    limits (-10.0 20.0)
           (-20.0 0.0)
  end
  begin
     id 25 
     name rhumerus
     direction -1 -4.48957e-011 -1.19147e-027  
     length 5.14182   
     axis 180 30 90   XYZ
    dof rx ry rz
    limits (-90.0 60.0)
           (-90.0 90.0)
           (-90.0 90.0)
  end
  begin
     id 26 
     name rradius
     direction -1 -4.48952e-011 -3.81062e-027   
     length 3.35565   
     axis 180 30 90   XYZ
    dof rx
    limits (-10.0 170.0)
  end
  begin
     id 27 
     name rwrist
     direction -1 -4.48973e-011 -2.99621e-027   
     length 1.67782   
     axis 1.95339e-015 -90 -90   XYZ
    dof ry
    limits (-180.0 0.0)
  end
  begin
     id 28
     name rhand
     direction -1 -4.48895e-011 -5.98727e-027   
     length 0.801042   
     axis 3.82337e-015 -90 -90   XYZ
    dof rx rz
    limits (-90.0 90.0)
           (-45.0 45.0)
  end
  begin
     id 29
     name rfingers
     direction -1 -4.49065e-011 -1.19972e-026   
     length 0.645821   
     axis 7.64668e-015 -90 -90   XYZ
    dof rx
    limits (0.0 90.0)
  end
  begin
     id 30
     name rthumb
     direction -0.707107 -6.34957e-011 0.707107   
     length 0.927273   
     axis -90 -45 1.62303e-014   XYZ
    dof rx rz
    limits (-45.0 45.0)
           (-45.0 45.0)
  end
:hierarchy
  begin
    root lhipjoint rhipjoint lowerback
    lhipjoint lfemur
    lfemur ltibia
    ltibia lfoot
    lfoot ltoes
    rhipjoint rfemur
    rfemur rtibia
    rtibia rfoot
    rfoot rtoes
    lowerback upperback
    upperback thorax
    thorax lowerneck lclavicle rclavicle
    lowerneck upperneck
    upperneck head
    lclavicle lhumerus
    lhumerus lradius
    lradius lwrist
    lwrist lhand lthumb
    lhand lfingers
    rclavicle rhumerus
    rhumerus rradius
    rradius rwrist
    rwrist rhand rthumb
    rhand rfingers
  end

#!OML:ASF E:\Style4\Style4.ASF
:FULLY-SPECIFIED
:DEGREES
204
root 0.18811 16.5048 -0.0915199 -3.8726 0.69912 2.47801
lowerback 10.464 2.11121 -2.41665
upperback 7.46601 2.60586 1.26484
thorax 1.75585 1.19361 2.43706
lowerneck 8.30108 -3.93361 -6.65791
upperneck 5.73455 -5.81326 3.82355
head 0.725598 -3.02291 2.45544
rclavicle 5.00937e-014 -1.59028e-015
rhumerus -25.4828 22.3856 -73.1948
rradius 136.076
rwrist -77.0608
rhand 64.3433 -8.22422
rfingers 7.12502
rthumb 74.9529 40.1571
lclavicle 5.00937e-014 -1.59028e-015
lhumerus -19.7725 -14.3955 76.3136
lradius 137.385
lwrist 74.8063
lhand 40.8626 53.1203
lfingers 7.12502
lthumb 63.1062 63.165
rfemur -19.8811 -8.15193 14.641
rtibia 57.7967
rfoot -29.1525 -18.3124
rtoes -20.7754
lfemur -19.4827 4.65184 -21.1525
ltibia 55.8963
lfoot -30.6992 6.92928
ltoes -16.0125
205
root 0.195827 16.4957 -0.0850436 -3.94028 0.684122 2.45952
lowerback 10.5468 2.12575 -2.42225
upperback 7.53198 2.62286 1.28981
thorax 1.7781 1.20034 2.46326
lowerneck 8.4037 -3.97768 -6.37478
upperneck 5.46595 -5.84339 3.47471
head 0.603763 -3.02985 2.29485
rclavicle -1.0138e-014 7.15625e-015
rhumerus -26.2847 21.685 -74.3044
rradius 135.844
rwrist -77.2253
rhand 64.4854 -8.37924
rfingers 7.12502
rthumb 74.9439 40.5292
lclavicle -1.0138e-014 7.15625e-015
lhumerus -20.2521 -14.2325 76.7634
lradius 137.204
lwrist 74.8483
lhand 40.7255 52.8445
lfingers 7.12502
lthumb 62.9938 63.0434
rfemur -19.8283 -8.1717 14.6117
rtibia 57.9166
rfoot -29.2516 -18.2792
rtoes -20.6885
lfemur -19.4133 4.61396 -21.1645
ltibia 56.0009
lfoot -30.8612 7.05657
ltoes -16.394
206
root 0.20577 16.4887 -0.0800872 -3.96862 0.66741 2.44133
lowerback 10.5691 2.12087 -2.37255
upperback 7.61234 2.62006 1.29669
thorax 1.85243 1.19869 2.44402
lowerneck 8.39761 -3.9516 -6.44675
upperneck 5.34413 -5.81326 3.48564
head 0.566844 -3.01497 2.31275
rclavicle 1.72943e-014 -1.59028e-014
rhumerus -26.8696 21.1775 -75.1194
rradius 135.586
rwrist -77.323
rhand 64.5491 -8.48864
rfingers 7.12502
rthumb 74.9394 40.656
lclavicle 1.72943e-014 -1.59028e-014
lhumerus -20.5607 -14.2953 76.8831
lradius 137.073
lwrist 74.7856
lhand 40.4977 52.5443
lfingers 7.12502
lthumb 62.8065 62.9965
rfemur -19.8035 -8.18798 14.5751
rtibia 57.9877
rfoot -29.3029 -18.2239
rtoes -20.5769
lfemur -19.401 4.54128 -21.196
ltibia 56.1045
lfoot -30.987 7.12961
ltoes -16.366
207
root 0.217817 16.4842 -0.0765228 -3.96892 0.609441 2.41627
lowerback 10.5881 2.13035 -2.31766
upperback 7.67235 2.63646 1.31618
thorax 1.90567 1.20708 2.4328
lowerneck 8.36556 -3.92312 -6.51926
upperneck 5.26141 -5.77892 3.49846
head 0.546595 -2.99815 2.33006
rclavicle 1.51076e-014 -1.90833e-014
rhumerus -27.3626 20.9242 -75.6212
rradius 135.367
rwrist -77.3351
rhand 64.2146 -8.06607
rfingers 7.12502
rthumb 74.96 39.8369
lclavicle 1.51076e-014 -1.90833e-014
lhumerus -20.6805 -14.5452 76.6965
lradius 136.949
lwrist 74.6454
lhand 40.3568 52.6046
lfingers 7.12502
lthumb 62.6903 63.2116
rfemur -19.8268 -8.17324 14.5483
rtibia 58.0384
rfoot -29.3316 -18.1438
rtoes -20.3721
lfemur -19.4262 4.52087 -21.2267
ltibia 56.1847
lfoot -31.005 7.1963
ltoes -16.1918
208
root 0.22685 16.4814 -0.0746311 -3.94975 0.500283 2.3577
lowerback 10.6088 2.15697 -2.3021
upperback 7.68975 2.67193 1.36171
thorax 1.90928 1.22402 2.46774
lowerneck 8.3681 -3.90551 -6.43882
upperneck 5.25807 -5.74598 3.35601
head 0.536376 -2.97967 2.26802
rclavicle -3.02153e-014 5.56597e-015
rhumerus -27.7914 20.8508 -75.8395
rradius 135.226
rwrist -77.2995
rhand 63.9916 -7.68265
rfingers 7.12502
rthumb 74.9697 39.391
lclavicle -3.02153e-014 5.56597e-015
lhumerus -20.6715 -14.9413 76.1988
lradius 136.871
lwrist 74.5216
lhand 40.1648 52.51
lfingers 7.12502
lthumb 62.5317 63.3258
rfemur -19.885 -8.07566 14.6011
rtibia 58.0675
rfoot -29.3375 -17.9904
rtoes -19.7708
lfemur -19.4701 4.54341 -21.1995
ltibia 56.2588
lfoot -31.0123 7.1266
ltoes -15.6337
